<svg xmlns="http://www.w3.org/2000/svg" width="1200" height="650" viewBox="0 0 1200 650"><defs><linearGradient id="bg" x1="0" y1="0" x2="1" y2="1"><stop stop-color="#081525"/><stop offset=".55" stop-color="#17385b"/><stop offset="1" stop-color="#6b351e"/></linearGradient><radialGradient id="glow"><stop stop-color="#ff9a4d" stop-opacity=".55"/><stop offset="1" stop-color="#ff9a4d" stop-opacity="0"/></radialGradient></defs><rect width="1200" height="650" rx="34" fill="url(#bg)"/><circle cx="900" cy="120" r="270" fill="url(#glow)"/><g fill="none" stroke="#fff" stroke-opacity=".14"><path d="M0 520 Q300 410 600 520 T1200 470" stroke-width="2"/><path d="M0 555 Q300 445 600 555 T1200 505"/></g><g fill="#fff"><text x="62" y="80" font-family="Arial,sans-serif" font-size="24" font-weight="700">♪ APP Música</text><text x="62" y="122" font-family="Arial,sans-serif" font-size="48" font-weight="800">Aprender. Tocar. Evoluir.</text><text x="62" y="160" font-family="Arial,sans-serif" font-size="20" opacity=".78">Uma experiência digital para conectar alunos e professores.</text></g><g font-family="Arial,sans-serif" font-weight="700" text-anchor="middle"><g transform="translate(120 250)"><ellipse cx="55" cy="155" rx="42" ry="25" fill="#a85b32"/><ellipse cx="55" cy="85" rx="25" ry="85" fill="#bd6a3b"/><rect x="51" y="0" width="8" height="80" rx="4" fill="#d7b083"/><circle cx="55" cy="105" r="7" fill="#301a12"/><path d="M48 0h14" stroke="#eee" stroke-width="2"/><text x="55" y="205" fill="#fff" font-size="18">Violão</text></g><g transform="translate(350 275)"><rect x="0" y="0" width="190" height="145" rx="12" fill="#eee"/><path d="M0 34h190M0 68h190M0 102h190" stroke="#777"/><g fill="#20252b"><rect x="18" y="0" width="16" height="52"/><rect x="52" y="0" width="16" height="52"/><rect x="104" y="0" width="16" height="52"/><rect x="138" y="0" width="16" height="52"/></g><text x="95" y="182" fill="#fff" font-size="18">Teclado</text></g><g transform="translate(625 260)"><path d="M15 150 L35 15 Q38 0 55 5 L200 105 Q220 118 204 133 L55 165 Q30 170 15 150Z" fill="#121820"/><rect x="35" y="55" width="155" height="90" rx="8" fill="#252e39"/><g fill="#fff"><rect x="43" y="63" width="20" height="70"/><rect x="68" y="63" width="20" height="70"/><rect x="93" y="63" width="20" height="70"/><rect x="118" y="63" width="20" height="70"/><rect x="143" y="63" width="20" height="70"/></g><text x="110" y="200" fill="#fff" font-size="18">Piano</text></g><g transform="translate(860 255)"><rect x="0" y="65" width="220" height="18" rx="9" transform="rotate(-18 0 65)" fill="#d9c7a8"/><circle cx="205" cy="0" r="28" fill="#e8d4ae"/><path d="M35 55L190 5" stroke="#9d815c" stroke-width="5"/><g fill="#b8945f"><circle cx="75" cy="42" r="5"/><circle cx="105" cy="32" r="5"/><circle cx="135" cy="22" r="5"/><circle cx="165" cy="12" r="5"/></g><text x="105" y="155" fill="#fff" font-size="18">Flauta</text></g><g transform="translate(1040 245)"><path d="M65 0 Q110 30 85 75 L55 190 Q45 215 25 205 Q5 195 15 170 L48 60 Q60 35 65 0Z" fill="#9c4d31"/><rect x="55" y="0" width="12" height="200" fill="#d6b07c"/><path d="M61 0v200" stroke="#fff" stroke-opacity=".7" stroke-width="2"/><text x="55" y="235" fill="#fff" font-size="18">Violino</text></g></g><g fill="#fff" opacity=".65" font-family="Arial,sans-serif" font-size="15"><text x="62" y="585">♪ Próxima aula  •  Agenda  •  Materiais  •  Progresso  •  Acompanhamento</text></g></svg>